<svg width="1250" height="382" viewBox="0 0 1250 382" fill="none" xmlns="http://www.w3.org/2000/svg">
  <defs>
    <linearGradient id="mobixBrand" x1="0" y1="0" x2="1250" y2="382" gradientUnits="userSpaceOnUse">
      <stop offset="0%" stop-color="#2990c8"/>
      <stop offset="100%" stop-color="#0f3c71"/>
    </linearGradient>
  </defs>
  <path d="M269.432 333.911V215.054C269.432 197.853 266.189 184.459 259.704 174.872C253.5 165.284 244.195 160.49 231.788 160.49C216.843 160.49 204.859 166.271 195.835 177.833C186.812 189.394 182.018 205.608 181.454 226.475V333.911H134.928V215.054C134.928 197.853 131.685 184.459 125.199 174.872C118.996 165.284 109.69 160.49 97.2832 160.49C81.7743 160.49 69.3671 166.553 60.0618 178.678C51.0384 190.804 46.5267 207.864 46.5267 229.859V333.911H0V122.423H46.5267V151.185C59.4978 129.19 79.5184 118.193 106.589 118.193C138.452 118.193 160.306 132.151 172.149 160.068C178.071 146.814 187.094 136.522 199.219 129.19C211.626 121.859 225.161 118.193 239.824 118.193C263.511 118.193 282.121 126.229 295.656 142.303C309.191 158.376 315.959 180.088 315.959 207.441V333.911H269.432Z" fill="url(#mobixBrand)"/>
  <path d="M532.814 306.417C511.665 327.566 485.441 338.141 454.141 338.141C422.842 338.141 396.476 327.566 375.046 306.417C353.897 284.987 343.323 258.903 343.323 228.167C343.323 197.43 353.897 171.488 375.046 150.339C396.476 128.908 422.842 118.193 454.141 118.193C485.441 118.193 511.665 128.908 532.814 150.339C554.244 171.488 564.96 197.43 564.96 228.167C564.96 258.903 554.244 284.987 532.814 306.417ZM454.141 294.997C472.47 294.997 487.556 288.652 499.399 275.963C511.524 262.992 517.587 247.06 517.587 228.167C517.587 209.274 511.524 193.483 499.399 180.793C487.556 167.822 472.47 161.336 454.141 161.336C435.531 161.336 420.163 167.822 408.038 180.793C396.194 193.483 390.273 209.274 390.273 228.167C390.273 247.06 396.194 262.992 408.038 275.963C420.163 288.652 435.531 294.997 454.141 294.997Z" fill="url(#mobixBrand)"/>
  <path d="M709.46 338.141C695.079 338.141 681.685 335.039 669.278 328.835C657.153 322.349 647.847 314.595 641.362 305.571V333.911H594.835V16.6785H641.362V150.762C647.847 141.739 657.153 134.125 669.278 127.921C681.685 121.436 695.079 118.193 709.46 118.193C738.222 118.193 762.331 128.908 781.788 150.339C801.527 171.77 811.396 197.712 811.396 228.167C811.396 258.621 801.527 284.564 781.788 305.994C762.331 327.425 738.222 338.141 709.46 338.141ZM701.001 295.843C719.329 295.843 734.415 289.357 746.259 276.386C758.102 263.415 764.023 247.342 764.023 228.167C764.023 208.992 758.102 192.919 746.259 179.947C734.415 166.976 719.329 160.49 701.001 160.49C682.39 160.49 667.163 166.976 655.32 179.947C643.477 192.919 637.555 208.992 637.555 228.167C637.555 247.342 643.477 263.415 655.32 276.386C667.163 289.357 682.39 295.843 701.001 295.843Z" fill="url(#mobixBrand)"/>
  <path d="M865.123 76.3182C856.664 76.3182 849.332 73.3573 843.129 67.4357C836.925 61.232 833.823 53.7594 833.823 45.0179C833.823 36.5584 836.925 29.3678 843.129 23.4461C849.332 17.2425 856.664 14.1406 865.123 14.1406C873.864 14.1406 881.196 17.2425 887.118 23.4461C893.039 29.3678 896 36.5584 896 45.0179C896 53.7594 893.039 61.232 887.118 67.4357C881.196 73.3573 873.864 76.3182 865.123 76.3182ZM841.86 333.911V122.423H888.386V333.911H841.86Z" fill="url(#mobixBrand)"/>
  <path d="M994.789 0H906.289L1034.79 166L865.289 382H956.289L1078.29 223L1150.79 318H1242.29L1121.79 166L1249.29 0H1162.79L1078.29 107L994.789 0Z" fill="url(#mobixBrand)"/>
</svg>
